<?xml version="1.0" encoding="UTF-8"?>
<svg id="Calque_1" data-name="Calque 1" xmlns="http://www.w3.org/2000/svg" viewBox="0 0 229.5 109.35">
  <defs>
    <style>
      .cls-1 {
        fill: #0071a8;
      }

      .cls-2 {
        fill: #9fc519;
      }

      .cls-3 {
        fill: #6b686b;
      }
    </style>
  </defs>
  <path class="cls-2" d="m114.06,65.94s3.96,22.18,24.75,24.26v1.29s-15.74,1.68-17.92,2.67v1.49h-1.98s0-2.18,1.88-2.57c1.88-.4,12.38-1.78,12.38-1.78v-1.29s-17.23-5.15-19.9-24.06c.35-.35.79,0,.79,0Z"/>
  <path class="cls-2" d="m201.53,36.04c-15.45,0-27.97,11.92-27.97,26.63s12.52,26.63,27.97,26.63,27.97-11.92,27.97-26.63-12.52-26.63-27.97-26.63Zm-.05,38.32c-6.18,0-11.19-5.23-11.19-11.68s5.01-11.68,11.19-11.68,11.19,5.23,11.19,11.68-5.01,11.68-11.19,11.68Z"/>
  <rect class="cls-2" x="58.91" y="37.13" width="17.82" height="50.69"/>
  <path class="cls-2" d="m76.29,44.36s7.18-8.42,15.99-8.42,16.83,7.33,16.83,15.35v36.04h-17.52v-29.31c0-3.27-3.37-6.73-7.13-6.73-6.34,0-8.17,6.63-8.17,6.63v-13.56Z"/>
  <path class="cls-2" d="m140.49,33.86h3.37s14.06-4.45,16.14-18.61c-.1-.5.99.3.99.3,0,0,3.56,11.88,12.67,16.93l-.1.69s-14.26-2.18-16.83-1.19v2.77h1.49v-1.58s13.86.1,21.38,2.67c.5-.1.3-.89.3-.89,0,0-14.46-6.24-17.92-20.3-.5-2.57-.2-12.47.1-14.65h-2.57s.69,11.98-.69,15.54c-1.39,3.56-4.95,15.45-18.02,17.33,0,.59-.3.99-.3.99Z"/>
  <path class="cls-1" d="m145.84,27.23v2.28s10.2-3.66,11.39-14.55c-1.39,2.18-3.47,9.21-11.39,12.28Z"/>
  <path class="cls-2" d="m159.7,38.22s6.34,5.45,8.51,15.94c.99-.2,1.09-1.98,1.09-1.98,0,0-1.98-9.9-9.6-13.96Z"/>
  <g>
    <path class="cls-3" d="m68.56,95.97v1.1h-3.31v9.42h-1.36v-9.42h-3.31v-1.1h7.98Z"/>
    <path class="cls-3" d="m70.03,106.5v-10.52h1.36v3.63c.66-.56,1.46-.84,2.41-.84,1.93,0,2.89.96,2.89,2.88v4.85h-1.36v-4.87c0-1.15-.57-1.72-1.71-1.72-.78,0-1.52.33-2.22.98v5.62h-1.36Z"/>
    <path class="cls-3" d="m82.08,98.77c2.2,0,3.3,1.09,3.3,3.26,0,.31-.02.64-.07.99h-5.42c0,1.58.92,2.37,2.77,2.37.88,0,1.66-.1,2.34-.29v1.1c-.68.2-1.51.3-2.49.3-2.65,0-3.98-1.32-3.98-3.95s1.18-3.77,3.55-3.77Zm-2.19,3.12h4.18c-.03-1.35-.69-2.03-1.99-2.03-1.37,0-2.1.68-2.19,2.03Z"/>
    <path class="cls-3" d="m94.08,98.77c2.2,0,3.3,1.09,3.3,3.26,0,.31-.02.64-.07.99h-5.42c0,1.58.92,2.37,2.77,2.37.88,0,1.66-.1,2.34-.29v1.1c-.68.2-1.51.3-2.49.3-2.65,0-3.98-1.32-3.98-3.95s1.18-3.77,3.55-3.77Zm-2.19,3.12h4.18c-.03-1.35-.69-2.03-1.99-2.03-1.37,0-2.1.68-2.19,2.03Z"/>
    <path class="cls-3" d="m99.21,106.5v-7.73h.92l.24.99c.79-.66,1.66-.99,2.6-.99,1.93,0,2.89.96,2.89,2.88v4.85h-1.36v-4.87c0-1.15-.57-1.72-1.71-1.72-.78,0-1.52.33-2.22.98v5.62h-1.36Z"/>
    <path class="cls-3" d="m111.26,98.77c2.2,0,3.3,1.09,3.3,3.26,0,.31-.02.64-.07.99h-5.42c0,1.58.92,2.37,2.77,2.37.88,0,1.66-.1,2.34-.29v1.1c-.68.2-1.51.3-2.49.3-2.65,0-3.98-1.32-3.98-3.95s1.18-3.77,3.55-3.77Zm-2.19,3.12h4.18c-.03-1.35-.69-2.03-1.99-2.03-1.37,0-2.1.68-2.19,2.03Z"/>
    <path class="cls-3" d="m116.39,106.5v-7.73h.92l.24.99c.68-.66,1.49-.99,2.44-.99v1.13c-.92,0-1.67.33-2.24.98v5.62h-1.36Z"/>
    <path class="cls-3" d="m127.88,106.5c0,1.86-1.19,2.8-3.55,2.8-.95,0-1.79-.12-2.53-.37v-1.1c.75.25,1.6.37,2.55.37,1.45,0,2.18-.56,2.18-1.69v-.37c-.58.25-1.2.37-1.87.37-2.44,0-3.66-1.3-3.66-3.91s1.29-3.82,3.86-3.82c1.04,0,2.06.11,3.03.32v7.41Zm-1.36-6.42c-.47-.12-1.04-.18-1.73-.18-1.64,0-2.46.89-2.46,2.67s.78,2.75,2.33,2.75c.71,0,1.33-.13,1.86-.4v-4.84Z"/>
    <path class="cls-3" d="m129.17,98.77h1.48l2.19,6.03,2.26-6.03h1.44l-3.21,7.95c-.57,1.4-1.42,2.28-2.56,2.63l-.52-.96c.86-.38,1.49-.99,1.88-1.85l-2.96-7.77Z"/>
    <path class="cls-3" d="m141.12,102.63c0-2.58,1.23-3.86,3.68-3.86s3.68,1.29,3.68,3.86-1.23,3.86-3.68,3.86-3.67-1.29-3.68-3.86Zm3.68,2.76c1.55,0,2.32-.93,2.32-2.79s-.77-2.73-2.32-2.73-2.32.91-2.32,2.73.77,2.79,2.32,2.79Z"/>
    <path class="cls-3" d="m150.32,106.5v-8.1c0-1.87,1.06-2.8,3.18-2.8.58,0,1.13.1,1.65.29v1.1c-.49-.2-1.04-.29-1.66-.29-1.21,0-1.81.55-1.81,1.64v.43h2.39v1.1h-2.39v6.62h-1.36Z"/>
    <path class="cls-3" d="m166.96,106.13c-.91.29-1.89.44-2.94.44-3.68,0-5.52-1.83-5.52-5.48,0-3.46,1.84-5.19,5.52-5.19,1.05,0,2.04.15,2.94.44v1.18c-.91-.34-1.84-.51-2.8-.51-2.87,0-4.3,1.36-4.3,4.08,0,2.92,1.43,4.38,4.3,4.38.96,0,1.89-.17,2.8-.52v1.18Z"/>
    <path class="cls-3" d="m168.69,104.16c0-1.58,1.04-2.38,3.13-2.38.67,0,1.34.05,2.02.15v-.73c0-.89-.69-1.33-2.08-1.33-.79,0-1.61.12-2.44.37v-1.1c.83-.25,1.65-.37,2.44-.37,2.3,0,3.44.8,3.44,2.4v5.33h-.76l-.47-.77c-.77.51-1.61.77-2.52.77-1.84,0-2.76-.78-2.76-2.33Zm3.13-1.27c-1.18,0-1.77.42-1.77,1.25s.47,1.25,1.4,1.25,1.74-.25,2.39-.75v-1.6c-.67-.1-1.34-.15-2.02-.15Z"/>
    <path class="cls-3" d="m177.41,106.5v-7.73h.92l.23.97c.74-.65,1.55-.97,2.42-.97,1.12,0,1.88.35,2.29,1.06.84-.71,1.69-1.06,2.55-1.06,1.78,0,2.66.98,2.66,2.94v4.79h-1.36v-4.86c0-1.15-.49-1.73-1.46-1.73-.73,0-1.41.33-2.04,1v5.59h-1.36v-4.84c0-1.17-.48-1.75-1.44-1.75-.77,0-1.45.33-2.05,1v5.59h-1.36Z"/>
    <path class="cls-3" d="m193.87,98.77c2.2,0,3.3,1.09,3.3,3.26,0,.31-.02.64-.07.99h-5.42c0,1.58.92,2.37,2.77,2.37.88,0,1.66-.1,2.34-.29v1.1c-.68.2-1.51.3-2.49.3-2.65,0-3.98-1.32-3.98-3.95s1.19-3.77,3.55-3.77Zm-2.19,3.12h4.18c-.03-1.35-.69-2.03-1.99-2.03-1.37,0-2.1.68-2.19,2.03Z"/>
    <path class="cls-3" d="m199,106.5v-7.73h.92l.24.99c.68-.66,1.49-.99,2.44-.99v1.13c-.92,0-1.67.33-2.24.98v5.62h-1.36Z"/>
    <path class="cls-3" d="m203.6,102.63c0-2.58,1.23-3.86,3.68-3.86s3.68,1.29,3.68,3.86-1.23,3.86-3.68,3.86-3.67-1.29-3.68-3.86Zm3.68,2.76c1.54,0,2.32-.93,2.32-2.79s-.77-2.73-2.32-2.73-2.32.91-2.32,2.73.77,2.79,2.32,2.79Z"/>
    <path class="cls-3" d="m212.43,102.63c0-2.58,1.23-3.86,3.68-3.86s3.68,1.29,3.68,3.86-1.23,3.86-3.68,3.86-3.67-1.29-3.68-3.86Zm3.68,2.76c1.55,0,2.32-.93,2.32-2.79s-.77-2.73-2.32-2.73-2.32.91-2.32,2.73.77,2.79,2.32,2.79Z"/>
    <path class="cls-3" d="m221.63,106.5v-7.73h.92l.24.99c.79-.66,1.66-.99,2.6-.99,1.93,0,2.89.96,2.89,2.88v4.85h-1.36v-4.87c0-1.15-.57-1.72-1.71-1.72-.78,0-1.52.33-2.22.98v5.62h-1.36Z"/>
  </g>
  <path class="cls-1" d="m27.85,75.94c-11.22-1.45-10.3-8.58-10.3-8.58h33.93s-.26-7.52-.79-11.88c-3.04-15.05-16.5-20.07-24.95-20.07S0,40.16,0,62.87c0,19.93,15.31,26.27,29.17,26.27s19.93-10.3,19.93-10.3c0,0-5.91-5.51-9.24-8.85-.79.53-6.31,6.68-12.01,5.94Zm-2.24-27.26c7.26,0,9.04,9.44,9.04,9.44h-17.56s1.25-9.44,8.51-9.44Z"/>
  <path class="cls-2" d="m144.62,76c-11.82-1.78-9.98-8.54-9.98-8.54h32.88s-.26-7.49-.77-11.82c-2.94-14.98-15.99-19.97-24.18-19.97s-24.95,4.73-24.95,27.32c0,19.84,14.84,26.14,28.28,26.14s19.32-10.25,19.32-10.25c0,0-5.73-5.48-8.96-8.8-.77.53-6.13,6.74-11.64,5.91Zm-2.18-27.13c10.29,0,8.76,9.39,8.76,9.39h-17.81s-.33-9.39,9.04-9.39Z"/>
</svg>